# xmcd CD database file generated by Grip 3.0.5
# 
# Track frame offsets:
#       150
#       12640
#       26487
#       40347
#       49120
#       73492
#       97517
#       113615
#       129637
#       146037
#       160650
#       175280
#       187207
#       206165
#       219585
#       234592
#       251110
#       266497
#       282340
#       302820
#       317515
# 
# Disc length: 4424 seconds
# 
# Revision: 2
# Processed by: cddbd v1.5.1PL0 Copyright (c) Steve Scherf et al.
# Submitted via: Grip 3.0.5
# 
DISCID=3d114615
DTITLE=Various Artist - The Great Dobro Sessions
DYEAR=1994
DGENRE=Alternative
TTITLE0=Fireball Mail - everyone
TTITLE1=Dobro Chimes - Oswald Kirby
TTITLE2=Just Joshin' - Josh Graves
TTITLE3=Poison Love - Gene Wooten
TTITLE4=Birdland - Jerry Douglas
TTITLE5=Wave - Mike Auldridge
TTITLE6=The Last Rose of Autumn - Stacy Phillips
TTITLE7=Rainbow Bridge - Curtis Burch
TTITLE8=Great Season Waltz - Sally Van Meter
TTITLE9=Scrapin' the Barrel - Rob Ickes
TTITLE10=Little Green Pill #2 - Tut Taylor
TTITLE11=Day Tripper - Gene Wooten
TTITLE12=Flatt Lonesome - Josh Graves
TTITLE13=Abilene Gale - Jerry Douglas
TTITLE14=McHattie's Waltz - Rob Ickes
TTITLE15=Ace of Spades - Stacy Phillips
TTITLE16=Suitcase - Curtis Burch
TTITLE17=Cherokee Shuffle - Sally Van Meter
TTITLE18=Lonesome Dobro - Tut Taylor
TTITLE19=Wake Forest - Mike Auldridge
TTITLE20=The End of the World - Oswald Kirby
EXTD="Birdland" is worth it alone!
EXTT0=
EXTT1=
EXTT2=
EXTT3=
EXTT4=
EXTT5=
EXTT6=
EXTT7=
EXTT8=
EXTT9=
EXTT10=
EXTT11=
EXTT12=
EXTT13=
EXTT14=
EXTT15=
EXTT16=
EXTT17=
EXTT18=
EXTT19=
EXTT20=
PLAYORDER=
